<svg xmlns="http://www.w3.org/2000/svg" viewBox="0 0 24 24">
  <circle cx="12" cy="12" r="11" fill="#1E3A8A"/>
  <path fill="#34D399" d="M12 2C11.45 2 11 2.45 11 3V4H9.95C9.7 3.4 9.15 3 8.5 3C7.67 3 7 3.67 7 4.5C7 5.33 7.67 6 8.5 6C9.15 6 9.7 5.6 9.95 5H11V7.95C10.4 7.7 9.85 7.45 9.3 7.35C8.95 7.3 8.6 7.25 8.25 7.25C6.15 7.25 4.25 8.4 3.15 9.5C2.45 10.2 2 11.1 2 12C2 12.9 2.45 13.8 3.15 14.5C4.25 15.6 6.15 16.75 8.25 16.75C8.6 16.75 8.95 16.7 9.3 16.65C9.85 16.55 10.4 16.3 11 16.05V19H9.95C9.7 18.4 9.15 18 8.5 18C7.67 18 7 18.67 7 19.5C7 20.33 7.67 21 8.5 21C9.15 21 9.7 20.6 9.95 20H11V21C11 21.55 11.45 22 12 22C12.55 22 13 21.55 13 21V20H14.05C14.3 20.6 14.85 21 15.5 21C16.33 21 17 20.33 17 19.5C17 18.67 16.33 18 15.5 18C14.85 18 14.3 18.4 14.05 19H13V16.05C13.6 16.3 14.15 16.55 14.7 16.65C15.05 16.7 15.4 16.75 15.75 16.75C17.85 16.75 19.75 15.6 20.85 14.5C21.55 13.8 22 12.9 22 12C22 11.1 21.55 10.2 20.85 9.5C19.75 8.4 17.85 7.25 15.75 7.25C15.4 7.25 15.05 7.3 14.7 7.35C14.15 7.45 13.6 7.7 13 7.95V5H14.05C14.3 5.6 14.85 6 15.5 6C16.33 6 17 5.33 17 4.5C17 3.67 16.33 3 15.5 3C14.85 3 14.3 3.4 14.05 4H13V3C13 2.45 12.55 2 12 2Z"/>
</svg>